<svg width="48" height="48" viewBox="0 0 48 48" fill="none" xmlns="http://www.w3.org/2000/svg">
<g clip-path="url(#clip0_67_4)">
<rect width="48" height="48" fill="white"/>
<path d="M25.984 40.928C25.504 41.072 24.736 41.216 23.68 41.36C22.672 41.504 21.616 41.576 20.512 41.576C19.456 41.576 18.496 41.504 17.632 41.36C16.816 41.216 16.12 40.928 15.544 40.496C14.968 40.064 14.512 39.488 14.176 38.768C13.888 38 13.744 37.016 13.744 35.816V14.216C13.744 13.112 13.936 12.176 14.32 11.408C14.752 10.592 15.352 9.872 16.12 9.248C16.888 8.624 17.824 8.072 18.928 7.592C20.08 7.064 21.304 6.608 22.6 6.224C23.896 5.84 25.24 5.552 26.632 5.36C28.024 5.12 29.416 5 30.808 5C33.112 5 34.936 5.456 36.28 6.368C37.624 7.232 38.296 8.672 38.296 10.688C38.296 11.36 38.2 12.032 38.008 12.704C37.816 13.328 37.576 13.904 37.288 14.432C36.28 14.432 35.248 14.48 34.192 14.576C33.136 14.672 32.104 14.816 31.096 15.008C30.088 15.2 29.128 15.416 28.216 15.656C27.352 15.848 26.608 16.088 25.984 16.376V40.928Z" fill="url(#paint0_linear_67_4)"/>
</g>
<defs>
<linearGradient id="paint0_linear_67_4" x1="24.5" y1="-35" x2="24.5" y2="32" gradientUnits="userSpaceOnUse">
<stop stop-color="#4169E1"/>
<stop offset="1" stop-color="#40E0D0"/>
</linearGradient>
<clipPath id="clip0_67_4">
<rect width="48" height="48" fill="white"/>
</clipPath>
</defs>
</svg>
