<svg width="170" height="50" viewBox="0 0 170 50" fill="none" xmlns="http://www.w3.org/2000/svg">
<path d="M44.104 33.968C43.8907 34.032 43.5493 34.096 43.08 34.16C42.632 34.224 42.1627 34.256 41.672 34.256C41.2027 34.256 40.776 34.224 40.392 34.16C40.0293 34.096 39.72 33.968 39.464 33.776C39.208 33.584 39.0053 33.328 38.856 33.008C38.728 32.6667 38.664 32.2293 38.664 31.696V22.096C38.664 21.6053 38.7493 21.1893 38.92 20.848C39.112 20.4853 39.3787 20.1653 39.72 19.888C40.0613 19.6107 40.4773 19.3653 40.968 19.152C41.48 18.9173 42.024 18.7147 42.6 18.544C43.176 18.3733 43.7733 18.2453 44.392 18.16C45.0107 18.0533 45.6293 18 46.248 18C47.272 18 48.0827 18.2027 48.68 18.608C49.2773 18.992 49.576 19.632 49.576 20.528C49.576 20.8267 49.5333 21.1253 49.448 21.424C49.3627 21.7013 49.256 21.9573 49.128 22.192C48.68 22.192 48.2213 22.2133 47.752 22.256C47.2827 22.2987 46.824 22.3627 46.376 22.448C45.928 22.5333 45.5013 22.6293 45.096 22.736C44.712 22.8213 44.3813 22.928 44.104 23.056V33.968ZM59.4505 34.512C58.1918 34.512 57.0185 34.3413 55.9305 34C54.8638 33.6373 53.9252 33.104 53.1145 32.4C52.3252 31.696 51.6958 30.8107 51.2265 29.744C50.7785 28.6773 50.5545 27.4293 50.5545 26C50.5545 24.592 50.7785 23.3867 51.2265 22.384C51.6958 21.36 52.3038 20.528 53.0505 19.888C53.7972 19.2267 54.6505 18.7467 55.6105 18.448C56.5705 18.128 57.5518 17.968 58.5545 17.968C59.6852 17.968 60.7092 18.1387 61.6265 18.48C62.5652 18.8213 63.3652 19.2907 64.0265 19.888C64.7092 20.4853 65.2318 21.2 65.5945 22.032C65.9785 22.864 66.1705 23.7707 66.1705 24.752C66.1705 25.4773 65.9678 26.032 65.5625 26.416C65.1572 26.8 64.5918 27.0453 63.8665 27.152L55.9625 28.336C56.1972 29.04 56.6772 29.5733 57.4025 29.936C58.1278 30.2773 58.9598 30.448 59.8985 30.448C60.7732 30.448 61.5945 30.3413 62.3625 30.128C63.1518 29.8933 63.7918 29.6267 64.2825 29.328C64.6238 29.5413 64.9118 29.84 65.1465 30.224C65.3812 30.608 65.4985 31.0133 65.4985 31.44C65.4985 32.4 65.0505 33.1147 64.1545 33.584C63.4718 33.9467 62.7038 34.192 61.8505 34.32C60.9972 34.448 60.1972 34.512 59.4505 34.512ZM58.5545 21.936C58.0425 21.936 57.5945 22.0213 57.2105 22.192C56.8478 22.3627 56.5492 22.5867 56.3145 22.864C56.0798 23.12 55.8985 23.4187 55.7705 23.76C55.6638 24.08 55.5998 24.4107 55.5785 24.752L61.0505 23.856C60.9865 23.4293 60.7518 23.0027 60.3465 22.576C59.9412 22.1493 59.3438 21.936 58.5545 21.936ZM76.149 34.512C75.0183 34.512 73.9623 34.3413 72.981 34C71.9997 33.68 71.1463 33.1787 70.421 32.496C69.6957 31.8133 69.1303 30.96 68.725 29.936C68.3197 28.912 68.117 27.7067 68.117 26.32C68.117 24.976 68.3303 23.792 68.757 22.768C69.1837 21.7227 69.781 20.848 70.549 20.144C71.3383 19.4187 72.277 18.8747 73.365 18.512C74.4743 18.1493 75.701 17.968 77.045 17.968C78.2397 17.968 79.3597 18.128 80.405 18.448C81.4503 18.768 82.2503 19.12 82.805 19.504C83.2317 19.8027 83.5623 20.144 83.797 20.528C84.053 20.912 84.181 21.392 84.181 21.968V39.376C83.9677 39.44 83.6263 39.504 83.157 39.568C82.6877 39.6533 82.2077 39.696 81.717 39.696C81.2477 39.696 80.821 39.664 80.437 39.6C80.0743 39.536 79.765 39.408 79.509 39.216C79.253 39.024 79.061 38.7573 78.933 38.416C78.805 38.096 78.741 37.6693 78.741 37.136V34.096C78.3783 34.2453 77.973 34.352 77.525 34.416C77.077 34.48 76.6183 34.512 76.149 34.512ZM78.773 22.544C78.581 22.4587 78.357 22.384 78.101 22.32C77.845 22.256 77.5463 22.224 77.205 22.224C76.053 22.224 75.1677 22.5653 74.549 23.248C73.9303 23.9093 73.621 24.912 73.621 26.256C73.621 27.664 73.9197 28.6773 74.517 29.296C75.1143 29.9147 75.957 30.224 77.045 30.224C77.7703 30.224 78.3463 30.0747 78.773 29.776V22.544ZM95.0263 17.968C95.9009 17.968 96.7543 18.096 97.5863 18.352C98.4396 18.5867 99.1756 18.9493 99.7943 19.44C100.434 19.0133 101.149 18.6613 101.938 18.384C102.749 18.1067 103.72 17.968 104.85 17.968C105.661 17.968 106.45 18.0747 107.218 18.288C108.008 18.5013 108.701 18.8427 109.298 19.312C109.917 19.76 110.408 20.368 110.77 21.136C111.133 21.8827 111.314 22.8 111.314 23.888V33.968C111.101 34.032 110.76 34.096 110.29 34.16C109.842 34.224 109.373 34.256 108.882 34.256C108.413 34.256 107.986 34.224 107.602 34.16C107.24 34.096 106.93 33.968 106.674 33.776C106.418 33.584 106.216 33.328 106.066 33.008C105.938 32.6667 105.874 32.2293 105.874 31.696V24.048C105.874 23.408 105.693 22.9493 105.33 22.672C104.968 22.3733 104.477 22.224 103.858 22.224C103.56 22.224 103.24 22.2987 102.898 22.448C102.557 22.576 102.301 22.7147 102.13 22.864C102.152 22.9493 102.162 23.0347 102.162 23.12C102.162 23.184 102.162 23.248 102.162 23.312V33.968C101.928 34.032 101.576 34.096 101.106 34.16C100.658 34.224 100.2 34.256 99.7303 34.256C99.2609 34.256 98.8343 34.224 98.4503 34.16C98.0876 34.096 97.7783 33.968 97.5223 33.776C97.2663 33.584 97.0636 33.328 96.9143 33.008C96.7863 32.6667 96.7223 32.2293 96.7223 31.696V24.048C96.7223 23.408 96.5196 22.9493 96.1143 22.672C95.7303 22.3733 95.2609 22.224 94.7063 22.224C94.3223 22.224 93.9916 22.288 93.7143 22.416C93.4369 22.5227 93.2023 22.6293 93.0103 22.736V33.968C92.7969 34.032 92.4556 34.096 91.9863 34.16C91.5383 34.224 91.0689 34.256 90.5783 34.256C90.1089 34.256 89.6823 34.224 89.2983 34.16C88.9356 34.096 88.6263 33.968 88.3703 33.776C88.1143 33.584 87.9116 33.328 87.7623 33.008C87.6343 32.6667 87.5703 32.2293 87.5703 31.696V22.032C87.5703 21.456 87.6876 20.9973 87.9223 20.656C88.1783 20.3147 88.5196 19.9947 88.9463 19.696C89.6716 19.184 90.5676 18.768 91.6343 18.448C92.7223 18.128 93.8529 17.968 95.0263 17.968ZM122.857 34.512C121.598 34.512 120.425 34.3413 119.337 34C118.27 33.6373 117.331 33.104 116.521 32.4C115.731 31.696 115.102 30.8107 114.633 29.744C114.185 28.6773 113.961 27.4293 113.961 26C113.961 24.592 114.185 23.3867 114.633 22.384C115.102 21.36 115.71 20.528 116.457 19.888C117.203 19.2267 118.057 18.7467 119.017 18.448C119.977 18.128 120.958 17.968 121.961 17.968C123.091 17.968 124.115 18.1387 125.033 18.48C125.971 18.8213 126.771 19.2907 127.433 19.888C128.115 20.4853 128.638 21.2 129.001 22.032C129.385 22.864 129.577 23.7707 129.577 24.752C129.577 25.4773 129.374 26.032 128.969 26.416C128.563 26.8 127.998 27.0453 127.273 27.152L119.369 28.336C119.603 29.04 120.083 29.5733 120.809 29.936C121.534 30.2773 122.366 30.448 123.305 30.448C124.179 30.448 125.001 30.3413 125.769 30.128C126.558 29.8933 127.198 29.6267 127.689 29.328C128.03 29.5413 128.318 29.84 128.553 30.224C128.787 30.608 128.905 31.0133 128.905 31.44C128.905 32.4 128.457 33.1147 127.561 33.584C126.878 33.9467 126.11 34.192 125.257 34.32C124.403 34.448 123.603 34.512 122.857 34.512ZM121.961 21.936C121.449 21.936 121.001 22.0213 120.617 22.192C120.254 22.3627 119.955 22.5867 119.721 22.864C119.486 23.12 119.305 23.4187 119.177 23.76C119.07 24.08 119.006 24.4107 118.985 24.752L124.457 23.856C124.393 23.4293 124.158 23.0027 123.753 22.576C123.347 22.1493 122.75 21.936 121.961 21.936Z" fill="url(#paint0_linear_20_2)"/>
<defs>
<linearGradient id="paint0_linear_20_2" x1="85.5" y1="0" x2="85.5" y2="41" gradientUnits="userSpaceOnUse">
<stop stop-color="#4169E1"/>
<stop offset="1" stop-color="#40E0D0"/>
</linearGradient>
</defs>
</svg>
